<svg width="653" height="604" viewBox="0 0 653 604" fill="none" xmlns="http://www.w3.org/2000/svg">
<path d="M277.171 304.785L286.074 332.129L298.156 321.954L291.797 300.334L277.171 304.785Z" fill="#FFB9B9"/>
<path d="M282.258 327.042C282.258 327.042 283.53 347.391 285.438 348.662C287.345 349.934 301.971 347.391 301.971 347.391C301.971 347.391 306.365 348.367 324.228 343.575C344.309 338.188 321.684 330.221 321.684 330.221C321.684 330.221 307.058 320.683 300.699 316.231C294.34 311.78 289.889 321.319 289.889 321.319C291.161 325.134 282.258 327.042 282.258 327.042Z" fill="#2F2E41"/>
<path d="M603.007 224.533H373.575V219.804H269.541V224.533H39.1634C35.0474 224.533 31.1 226.168 28.1896 229.078C25.2791 231.989 23.6441 235.936 23.644 240.052V554.216C23.6441 558.332 25.2791 562.279 28.1896 565.19C31.1 568.1 35.0474 569.735 39.1634 569.735H603.007C605.045 569.735 607.063 569.334 608.946 568.554C610.829 567.774 612.54 566.631 613.981 565.19C615.422 563.748 616.565 562.038 617.345 560.155C618.125 558.272 618.526 556.254 618.526 554.216V240.052C618.526 238.014 618.125 235.996 617.345 234.113C616.565 232.23 615.422 230.52 613.981 229.079C612.54 227.637 610.829 226.494 608.946 225.714C607.063 224.934 605.045 224.533 603.007 224.533V224.533Z" fill="#3F3D56"/>
<path opacity="0.1" d="M597.72 251.96H44.4507V564.06H597.72V251.96Z" fill="black"/>
<path d="M320.612 243.448C323.746 243.448 326.287 240.908 326.287 237.774C326.287 234.64 323.746 232.099 320.612 232.099C317.478 232.099 314.938 234.64 314.938 237.774C314.938 240.908 317.478 243.448 320.612 243.448Z" fill="#91C5FF"/>
<path d="M595.155 251.804H45.3796V563.789H595.155V251.804Z" fill="#E6E6E6"/>
<path d="M579.434 273.122H61.1003V544.127H579.434V273.122Z" fill="white"/>
<path d="M241.385 301.241H108.198V516.008H241.385V301.241Z" fill="#E6E6E6"/>
<path d="M375.365 301.241H264.376V360.358H375.365V301.241Z" fill="#91C5FF"/>
<path d="M375.365 376.821H264.376V440.428H375.365V376.821Z" fill="#E6E6E6"/>
<path d="M375.365 456.891H264.376V516.008H375.365V456.891Z" fill="#E6E6E6"/>
<path d="M532.336 301.241H399.149V394.835H532.336V301.241Z" fill="#E6E6E6"/>
<path d="M532.336 422.414H399.149V516.008H532.336V422.414Z" fill="#91C5FF"/>
<path d="M634.061 558.386H580.066V554.495C580.066 554.394 580.046 554.294 580.007 554.2C579.968 554.107 579.911 554.022 579.84 553.95C579.768 553.878 579.683 553.822 579.589 553.783C579.496 553.744 579.395 553.724 579.294 553.724H560.781C560.68 553.724 560.58 553.744 560.486 553.783C560.393 553.822 560.308 553.878 560.236 553.95C560.164 554.022 560.108 554.107 560.069 554.2C560.03 554.294 560.01 554.394 560.01 554.495V558.386H548.44V554.495C548.44 554.394 548.42 554.294 548.381 554.2C548.342 554.107 548.285 554.022 548.214 553.95C548.142 553.878 548.057 553.822 547.964 553.783C547.87 553.744 547.77 553.724 547.668 553.724H529.156C529.054 553.724 528.954 553.744 528.86 553.783C528.767 553.822 528.682 553.878 528.61 553.95C528.538 554.022 528.482 554.107 528.443 554.2C528.404 554.294 528.384 554.394 528.384 554.495V554.495V558.386H516.814V554.495C516.814 554.394 516.794 554.294 516.755 554.2C516.716 554.107 516.659 554.022 516.588 553.95C516.516 553.878 516.431 553.822 516.338 553.783C516.244 553.744 516.144 553.724 516.042 553.724H497.53C497.428 553.724 497.328 553.744 497.234 553.783C497.141 553.822 497.056 553.878 496.984 553.95C496.913 554.022 496.856 554.107 496.817 554.2C496.778 554.294 496.758 554.394 496.758 554.495V558.386H485.188V554.495C485.188 554.394 485.168 554.294 485.129 554.2C485.09 554.107 485.034 554.022 484.962 553.95C484.89 553.878 484.805 553.822 484.712 553.783C484.618 553.744 484.518 553.724 484.416 553.724H465.904C465.802 553.724 465.702 553.744 465.609 553.783C465.515 553.822 465.43 553.878 465.358 553.95C465.287 554.022 465.23 554.107 465.191 554.2C465.152 554.294 465.132 554.394 465.132 554.495V554.495V558.386H453.562V554.495C453.562 554.394 453.542 554.294 453.503 554.2C453.464 554.107 453.408 554.022 453.336 553.95C453.264 553.878 453.179 553.822 453.086 553.783C452.992 553.744 452.892 553.724 452.791 553.724H434.278C434.177 553.724 434.076 553.744 433.983 553.783C433.889 553.822 433.804 553.878 433.732 553.95C433.661 554.022 433.604 554.107 433.565 554.2C433.526 554.294 433.506 554.394 433.506 554.495V558.386H421.936V554.495C421.936 554.394 421.916 554.294 421.877 554.2C421.839 554.107 421.782 554.022 421.71 553.95C421.638 553.878 421.553 553.822 421.46 553.783C421.366 553.744 421.266 553.724 421.165 553.724H402.652C402.551 553.724 402.45 553.744 402.357 553.783C402.263 553.822 402.178 553.878 402.106 553.95C402.035 554.022 401.978 554.107 401.939 554.2C401.9 554.294 401.881 554.394 401.881 554.495V558.386H390.31V554.495C390.31 554.394 390.29 554.294 390.251 554.2C390.213 554.107 390.156 554.022 390.084 553.95C390.013 553.878 389.927 553.822 389.834 553.783C389.74 553.744 389.64 553.724 389.539 553.724H244.522C244.318 553.724 244.122 553.805 243.977 553.95C243.832 554.095 243.751 554.291 243.751 554.495V554.495V558.386H232.18V554.495C232.18 554.394 232.161 554.294 232.122 554.2C232.083 554.107 232.026 554.022 231.955 553.95C231.883 553.878 231.798 553.822 231.704 553.783C231.611 553.744 231.51 553.724 231.409 553.724H212.896C212.692 553.724 212.496 553.805 212.351 553.95C212.206 554.095 212.125 554.291 212.125 554.495V558.386H200.555V554.495C200.555 554.394 200.535 554.294 200.496 554.2C200.457 554.107 200.4 554.022 200.329 553.95C200.257 553.878 200.172 553.822 200.078 553.783C199.985 553.744 199.885 553.724 199.783 553.724H181.271C181.066 553.724 180.87 553.805 180.725 553.95C180.58 554.095 180.499 554.291 180.499 554.495V554.495V558.386H168.929V554.495C168.929 554.394 168.909 554.294 168.87 554.2C168.831 554.107 168.774 554.022 168.703 553.95C168.631 553.878 168.546 553.822 168.453 553.783C168.359 553.744 168.259 553.724 168.157 553.724H149.645C149.44 553.724 149.244 553.805 149.099 553.95C148.954 554.095 148.873 554.291 148.873 554.495V554.495V558.386H137.303V554.495C137.303 554.394 137.283 554.294 137.244 554.2C137.205 554.107 137.148 554.022 137.077 553.95C137.005 553.878 136.92 553.822 136.827 553.783C136.733 553.744 136.633 553.724 136.531 553.724H118.019C117.814 553.724 117.618 553.805 117.473 553.95C117.329 554.095 117.247 554.291 117.247 554.495V554.495V558.386H105.677V554.495C105.677 554.394 105.657 554.294 105.618 554.2C105.579 554.107 105.523 554.022 105.451 553.95C105.379 553.878 105.294 553.822 105.201 553.783C105.107 553.744 105.007 553.724 104.906 553.724H86.3927C86.1882 553.724 85.992 553.805 85.8473 553.95C85.7026 554.095 85.6214 554.291 85.6214 554.495V554.495V558.386H74.0509V554.495C74.0509 554.394 74.0309 554.294 73.9922 554.2C73.9534 554.107 73.8966 554.022 73.825 553.95C73.7534 553.878 73.6683 553.822 73.5748 553.783C73.4812 553.744 73.3809 553.724 73.2796 553.724H54.7668C54.5622 553.724 54.366 553.805 54.2214 553.95C54.0767 554.095 53.9955 554.291 53.9955 554.495V554.495V558.386H18.5127C13.6028 558.386 8.89407 560.336 5.42226 563.808C1.95045 567.28 0 571.989 0 576.899V585.27C7.95649e-06 590.179 1.95046 594.888 5.42227 598.36C8.89408 601.832 13.6028 603.782 18.5127 603.782H634.061C638.971 603.782 643.68 601.832 647.151 598.36C650.623 594.888 652.574 590.179 652.574 585.27V576.899C652.574 571.989 650.623 567.28 647.151 563.808C643.68 560.336 638.971 558.386 634.061 558.386V558.386Z" fill="#3F3D56"/>
<path d="M551 302.446H549C549.062 276.722 543.501 251.295 532.706 227.945L534.522 227.107C545.439 250.72 551.063 276.433 551 302.446V302.446Z" fill="#3F3D56"/>
<path d="M525.267 354.602L501.037 346.364L524.298 227.635L508.306 226.182C492.712 238.146 471.946 242.836 445.307 239.266L487.952 303.719L466.207 319.068L396.839 235.863C393.712 232.112 392 227.384 392 222.501C392 217.975 393.472 213.571 396.194 209.954C398.916 206.337 402.741 203.704 407.091 202.451L481.168 181.113L567.912 190.805C581.027 210.799 581.54 224.705 561.576 228.716L525.267 354.602Z" fill="#2F2E41"/>
<path d="M500.467 400.79C497.962 400.632 495.53 399.885 493.368 398.61C491.207 397.335 489.376 395.568 488.025 393.453C486.674 391.338 485.841 388.934 485.594 386.436C485.347 383.939 485.692 381.418 486.601 379.079L498.647 348.104C504.766 336.512 513.164 337.963 523.08 348.104L527.926 362.319C528.325 363.489 528.483 364.728 528.391 365.961C528.3 367.195 527.959 368.397 527.391 369.495L515.65 392.195C514.226 394.947 512.033 397.225 509.337 398.751C506.641 400.277 503.559 400.986 500.467 400.79V400.79Z" fill="#2F2E41"/>
<path d="M469.152 360.227C466.647 360.069 464.215 359.322 462.054 358.047C459.892 356.772 458.061 355.005 456.71 352.89C455.36 350.775 454.527 348.371 454.279 345.874C454.032 343.376 454.377 340.855 455.287 338.516L467.333 307.541C473.451 295.95 481.849 297.401 491.765 307.541L496.611 321.756C497.01 322.926 497.169 324.166 497.077 325.399C496.985 326.632 496.645 327.834 496.076 328.932L484.335 351.632C482.912 354.384 480.718 356.662 478.022 358.188C475.326 359.715 472.244 360.423 469.152 360.227Z" fill="#2F2E41"/>
<path d="M484.56 67.715C499.548 67.715 511.698 55.5648 511.698 40.577C511.698 25.5891 499.548 13.439 484.56 13.439C469.572 13.439 457.422 25.5891 457.422 40.577C457.422 55.5648 469.572 67.715 484.56 67.715Z" fill="#FFB9B9" fill-opacity="0.8"/>
<path d="M526.721 78.8613L489.406 98.2453L481.652 63.3533L507.336 47.3613L526.721 78.8613Z" fill="#FFB9B9" fill-opacity="0.8"/>
<path d="M571.789 195.651C534.555 184.405 500.771 178.578 476.322 187.413C484.749 163.705 469.194 127.501 452.091 90.4915C459.471 80.8447 471.237 77.108 484.56 75.4687C499.137 86.0531 509.301 79.2596 517.029 62.8689C533.882 62.1924 550.124 68.1607 565.974 78.3763C553.584 118.062 555.814 157.142 571.789 195.651Z" fill="white"/>
<path d="M475.837 193.228C469.957 196.694 464.531 202.532 459.36 209.705C450.622 204.356 442.932 198.266 436.874 191.022C432.634 185.886 429.743 179.773 428.463 173.237C427.182 166.701 427.554 159.949 429.544 153.593L446.105 99.7713C447.48 95.3011 450.152 91.3401 453.782 88.3907L455.968 86.6147L477.775 127.806L455.968 168.513C458.733 175.928 466.883 184.492 475.837 193.228Z" fill="white"/>
<path d="M483.343 234.264C481.366 235.165 479.206 235.594 477.035 235.517C474.863 235.439 472.74 234.858 470.832 233.818C468.924 232.778 467.284 231.308 466.042 229.525C464.8 227.743 463.99 225.695 463.676 223.545L460.072 198.871L472.672 192.086L488.663 213.02C489.94 214.692 490.824 216.63 491.249 218.691C491.675 220.752 491.63 222.882 491.119 224.923C490.608 226.964 489.643 228.864 488.297 230.481C486.951 232.098 485.258 233.391 483.343 234.264V234.264Z" fill="#FFB9B9"/>
<path d="M511.94 39.3894L507.307 39.5271L494.454 21.3198C477.984 23.0224 464.489 30.1778 453.068 41.1381L451.91 33.4185C450.806 26.0568 452.565 18.5518 456.825 12.4473C461.085 6.34272 467.523 2.10277 474.813 0.599536H474.813C478.643 -0.190049 482.592 -0.199822 486.425 0.570788C490.259 1.3414 493.898 2.87658 497.124 5.08469C500.351 7.2928 503.1 10.1286 505.207 13.4226C507.313 16.7166 508.734 20.4014 509.385 24.2568L511.94 39.3894Z" fill="#2F2E41"/>
<path d="M459.828 209.715C458.927 207.738 458.498 205.578 458.575 203.406C458.653 201.235 459.234 199.111 460.274 197.203C461.314 195.296 462.783 193.656 464.566 192.414C466.349 191.172 468.397 190.362 470.547 190.048L495.221 186.444L502.006 199.043L481.072 215.034C479.4 216.312 477.462 217.196 475.401 217.621C473.34 218.046 471.21 218.002 469.169 217.49C467.128 216.979 465.228 216.015 463.611 214.669C461.994 213.322 460.701 211.629 459.828 209.715V209.715Z" fill="#FFB9B9"/>
<path d="M576.49 187.27C553.015 189.093 527.384 196.413 500.552 206.797C500.219 198.832 497.33 191.186 492.314 184.99C516.684 178.571 538.798 171.038 552.405 159.306L544.167 97.276L562.097 76.9225L565.19 78.5361C567.759 79.8708 570.018 81.7306 571.822 83.9948C573.625 86.2591 574.932 88.8772 575.659 91.6794C583.23 121.128 586.592 149.344 584.281 175.897C584.579 178.415 583.954 180.955 582.521 183.047C581.089 185.138 578.946 186.639 576.49 187.27V187.27Z" fill="white"/>
</svg>
